<svg xmlns="http://www.w3.org/2000/svg" xmlns:xlink="http://www.w3.org/1999/xlink" viewBox="0 0 1080 850"><defs><style>.cls-1{fill:#ffec66;}.cls-1,.cls-13{fill-rule:evenodd;}.cls-2{fill:url(#radial-gradient);}.cls-3{fill:#fff;}.cls-4{fill:#f74141;}.cls-5{fill:#fc88fa;}.cls-6{fill:#fc8a3d;}.cls-7{fill:#1d8cfc;}.cls-8{fill:#ffbc00;}.cls-9{fill:#65c750;}.cls-10{fill:#2ccfdb;}.cls-11{fill:#d34df4;}.cls-12{fill:#7650ff;}.cls-13{fill:#ffb40d;}.cls-14{fill:#600;}</style><radialGradient id="radial-gradient" cx="540" cy="456.51" fy="339.7644211181138" r="285.35" gradientUnits="userSpaceOnUse"><stop offset="0.08" stop-color="#fff271"/><stop offset="0.26" stop-color="#ffec64"/><stop offset="0.53" stop-color="#ffe047"/><stop offset="0.64" stop-color="#ffdc3e"/><stop offset="0.81" stop-color="#ffd225"/><stop offset="1" stop-color="#ffc401"/></radialGradient></defs><g id="Logo"><g id="Sun-2" data-name="Sun"><path class="cls-1" d="M845.52,517.3c-1.26,6.32,2.85,11.7,10.72,20.15,21.3,21.08,31.15,43,24.12,59.95s-29.26,25.41-59,25.35h0c-6.45.29-11.52.69-15.38,1.92H775.9a289.72,289.72,0,0,1-471.79,0H274.47c-3.84-1.3-9-1.69-15.74-1.92-29.78.06-52.07-8.48-59.07-25.35s2.77-38.78,24-59.82c7.7-8.44,12.08-14.08,10.83-20.43-1.22-6.17-6.84-9.55-16.88-14.18-28.18-11.35-46-28-46-46.44s17.64-35,45.61-46.31c10-4.72,16-8.25,17.28-14.48s-2.85-11.69-10.72-20.15c-21.31-21.08-31.15-43-24.11-59.93s29.24-25.43,59-25.36h0c11.59-.52,18.74-1.4,22.38-6.81,3.46-5.17,1.95-11.43-1.76-21.57-12.05-28.08-12.95-52.54.2-65.69s37.24-12.26,65-.51c10.4,3.73,17.15,5.49,22.44,1.95s6.25-10.29,6.67-21.86c-.14-29.93,8.4-52.35,25.36-59.39s38.67,2.72,59.68,23.79h0c8.55,7.82,14.22,12.26,20.63,11,6.11-1.21,9.49-6.71,14-16.54,11.36-28.34,28-46.26,46.62-46.26S575.4,106.48,586.77,135c4.46,9.35,8,15,14,16.19,6.67,1.32,12.25-3.28,21.53-12l.07,0c20.68-20.35,42-29.61,58.64-22.74,17.08,7.08,25.62,29.78,25.34,60.06.55,10.9,1.52,17.73,6.78,21.23s12,1.82,23-2.28c27.53-11.49,51.43-12.15,64.38.78,13.08,13.09,12.26,37.37.39,65.26-3.66,10.22-5.36,16.89-1.86,22.14,3.62,5.42,10.44,6.27,22.25,6.68,29.79-.08,52.07,8.47,59.08,25.35s-2.78,38.76-24,59.8c-7.72,8.46-12.1,14.1-10.83,20.45,1.21,6.17,6.84,9.55,16.87,14.17,28.17,11.34,46,27.94,46,46.45s-17.63,35-45.6,46.31C852.78,507.55,846.76,511.07,845.52,517.3Z"/><circle id="Gradient" class="cls-2" cx="540" cy="456.51" r="285.35"/></g><path id="Cloud" class="cls-3" d="M1062.36,528.82a102.54,102.54,0,0,0-87.86-99.43,75.43,75.43,0,0,0-133.25,29.79A88.23,88.23,0,0,0,761.83,521c-.56,0-1.12,0-1.69,0a71.2,71.2,0,0,0-48.87,20.7,93.43,93.43,0,0,0-130.69,31,66.28,66.28,0,0,0-92,10.14,72.75,72.75,0,0,0-97.39-1.7,82.62,82.62,0,0,0-45.66-21.55,88.18,88.18,0,0,0-82-81.13,81.15,81.15,0,0,0-143.08-39,111.85,111.85,0,0,0,10,223.31A99.84,99.84,0,0,0,234.2,712.7a83.4,83.4,0,0,0,111.74,42.4,100.5,100.5,0,0,0,133.13,26.33,111.41,111.41,0,0,0,145.39-20.8,91,91,0,0,0,126.13-14.51A90.12,90.12,0,0,0,861.28,693a93.51,93.51,0,0,0,101.83-59.68A102.52,102.52,0,0,0,1062.36,528.82Z"/><g id="Letters-2" data-name="Letters"><path class="cls-4" d="M164.11,460.08c37-1,53.72,30.88,54.57,46.19,1.14,18.82-11.44,27.44-19.63,27S180.88,529,182.17,516c1.8-19.54-15.24-15-16.81-7.9-2.47,11.11,20.95,31.64,20.22,54.15-.47,17.41-16.23,45.55-48.3,41.88-34.17-4-55.2-38.64-56.83-58.76s12.11-30.37,24-29.32c11.25,1,18.69,14.07,20.79,30.75,3,24,19.7,13.92,20.18,7.86.72-11-19.8-25.66-21.53-47.29C122.09,485.12,136,460.79,164.11,460.08Z"/><path class="cls-5" d="M906.72,495.77c4.71-29,32-38.25,44.13-37.9,18.35.45,21.78,11.49,21.15,19-.54,5.9-5.73,15.05-25.07,16.16-10.42.66-8.29,11.18-2.53,11.55s27-13.37,44.37-5.27c11.81,5.36,26.91,17.17,24.32,38.79-2.23,18.24-20.66,35-38.49,40.2-21.92,6.43-42.64-.85-39.36-17.09,2.38-11.56,19.47-14.6,29.25-14.41,11.39.3,13.11-14.71.37-14.8-9.05,0-18.42,11.85-36.17,6.7C911.67,533.75,903.25,517.34,906.72,495.77Z"/><path class="cls-6" d="M241.5,566.38s-21.25-13.94-21.34-25.15,10.74-16.15,23.05-14.29C258,529.22,295.43,550,304.06,570c5.75,13-5.38,24.06-16.58,22.21-10.37-1.71-21.26-11.87-21.26-11.87A122.29,122.29,0,0,1,249.54,623c-20.08,32.85-40,39-49.7,31.75-14.9-11.29-5.26-30.76,4.38-48.43C215,586.89,241.5,566.38,241.5,566.38Z"/><path class="cls-7" d="M646,628.52s-30.41,10.69-41,1.53-8.2-21.5,1-31c14.65-15.09,63.28-27.61,91.62-26.73,25.5.77,29.78,26.12,17.19,35.9-11.53,9-30.81,10.64-30.81,10.64s15.46,31.45,20.76,62.51c3.25,18.68,5.91,49.12-15.28,53.95s-29-13.62-36.76-39.29C644.72,669.33,646,628.52,646,628.52Z"/><path class="cls-8" d="M336.26,600c-25.09-8.6-54.83,6.51-65.48,44.8-9.65,34.36,10.59,58.22,37.68,65.62s55.15-18.21,63.36-48.66C380.62,629.16,359.32,607.91,336.26,600Zm-15.95,55.89c-5.15-2.86-6.35-9.46-3.31-15.19s9.29-8.29,14.6-5.57c5.15,2.85,6.64,9.62,3.6,15.35S325.47,658.77,320.31,655.92Z"/><path class="cls-9" d="M459.81,693.38a1.91,1.91,0,0,1,1.52-1.89c5.05-1.24,25.32-8.84,20.33-41.78-3.55-23.16-22.31-40.24-49.71-39-26.8,1.27-45.31,17.34-52.41,78.9-2,17.28-4.1,44.17,19.83,46.4,16.69,1.5,23.28-25.74,23.92-36.38,0-.3.6-.44.6,0,1.54,12.16,6.8,46.44,34.6,47.27,13.61.41,18.83-9.41,18.16-21.11C476.27,714.71,459.75,704.48,459.81,693.38Zm-27.47-18c-4.86-1-8-6.22-6.88-11.82s6-9.21,11-8.22,8,6.22,6.88,11.82S437.2,676.37,432.34,675.39Z"/><path class="cls-10" d="M536.79,648.79c1.26-.11,9.25-48,33.37-45.39s16,32.19,8.51,46c-7.39,13.66-23.12,27.37-26.24,30.33,0,0,11.12,24.72,12.81,38.84,1.42,12.59-2.37,33.42-22.37,34.08s-27.49-13.49-27.76-29,8.1-42,8.1-42c-4.68-3.39-32.32-24.79-33.19-51.7s21-32.68,33.29-16.41C533.77,627.73,536.79,648.79,536.79,648.79Z"/><path class="cls-11" d="M854.45,558.76c1.25-.65-15.29-59.7,12-66.21,22.95-5.38,29.8,29.12,27.84,46.53-1.87,16.85-9.6,31.13-11.33,35.41a64.92,64.92,0,0,1,20.63,19.12c8,11.23,15.51,38.27-3.29,48.66-19,10.5-35.07-3.26-42-18.62s-6.16-33.53-6.16-33.53c-7.28-.09-46-7-58.4-33.42s10.81-37.36,30-26.51C840.37,539.76,854.45,558.76,854.45,558.76Z"/><path class="cls-12" d="M779.93,584.84c-21-1.85-55.53,14.59-58.35,47.72-3.29,38.59,26.82,69.41,47.22,71.16,26.9,2.39,59.15-16.53,60.79-46.1C831.07,628,815.44,587.76,779.93,584.84ZM774.21,647c-4.75,1.46-12.38-2.21-14.59-9.63-2.29-7.88,2.82-12.43,7.56-13.89s12.5,2.39,14.18,8.52S782.09,644.75,774.21,647Z"/></g><g id="Face-2" data-name="Face"><g id="Nose"><path class="cls-13" d="M539.76,336.15c19.76,0,35.79,9,35.79,20.18s-16,20.17-35.79,20.17-35.8-9-35.8-20.17S520,336.15,539.76,336.15Z"/></g><path id="Eye" class="cls-14" d="M383.66,331.76c9.6-19.44,27.11-28.34,44.6-28.42,18.77.09,36.65,10.34,44,30.24a7.58,7.58,0,1,0,14.23-5.2c-9.58-26.29-33.91-40.29-58.19-40.2-22.7-.07-46.12,12.17-58.21,36.9a7.58,7.58,0,0,0,13.61,6.68Z"/><path id="Eye-2" data-name="Eye" class="cls-14" d="M709.61,325.08c-12.09-24.73-35.51-37-58.21-36.9-24.28-.09-48.61,13.91-58.19,40.2a7.58,7.58,0,1,0,14.23,5.2c7.31-19.9,25.19-30.15,44-30.24,17.49.08,35,9,44.6,28.42a7.58,7.58,0,0,0,13.61-6.68Z"/><path id="Mouth" class="cls-14" d="M677.11,417.63c-6-19.59-27.7-33.91-50-34.31a43.75,43.75,0,0,0-6,.41,7.58,7.58,0,0,0,2.05,15,29,29,0,0,1,4-.27A35,35,0,0,1,641,401.26c-25.08,26.67-59,39.22-93.6,39.25a147.22,147.22,0,0,1-62.73-14.17,7.58,7.58,0,0,0-6.49,13.7,162.43,162.43,0,0,0,69.22,15.63c39.19,0,78.37-14.75,106.73-46.3,4.37,3.85,7.51,8.25,8.43,12.32a7.58,7.58,0,1,0,14.6-4.06Z"/></g></g></svg>